<?xml version="1.0" encoding="utf-8"?>
<!-- Generator: Adobe Illustrator 28.0.0, SVG Export Plug-In . SVG Version: 6.00 Build 0)  -->
<svg version="1.1" id="Layer_1" xmlns="http://www.w3.org/2000/svg" xmlns:xlink="http://www.w3.org/1999/xlink" x="0px" y="0px"
	 viewBox="0 0 16 16" style="enable-background:new 0 0 16 16;" xml:space="preserve">
<style type="text/css">
	.st0{fill:#FFF9D8;}
	.st1{fill:#22AAE2;}
	.st2{fill:#F16724;}
	.st3{fill:#BF202D;}
	.st4{fill:#FEDF00;}
	.st5{fill:#804098;}
	.st6{fill:#049548;}
	.st7{fill:#FFFFFF;}
	.st8{fill:#ED227C;}
	.st9{fill:#273C90;}
	.st10{fill:#828385;}
	.st11{fill:#050606;}
</style>
<rect class="st0" width="16" height="16"/>
<g>
	<g>
		<path class="st1" d="M7.23,9.22C7.85,9.14,8.3,8.64,8.32,8.04c-0.62,0-1.15-0.45-1.23-1.08c-0.01-0.07-0.01-0.14,0-0.21
			c-0.05,0-0.11,0-0.16,0c-0.68,0.09-1.17,0.7-1.09,1.38C5.92,8.82,6.55,9.3,7.23,9.22z"/>
		<path class="st2" d="M11.67,13.41c-0.01-0.08-0.01-0.16-0.01-0.24c-0.19-0.08-0.4-0.11-0.62-0.08c-0.3,0.04-0.57,0.19-0.76,0.39
			c0.11,0.16,0.19,0.34,0.21,0.54c0.05,0.38-0.09,0.73-0.33,0.99c0.26,0.37,0.7,0.59,1.18,0.53c0.6-0.08,1.05-0.56,1.09-1.14
			C12.03,14.23,11.72,13.87,11.67,13.41z"/>
		<path class="st3" d="M12.9,10.59c-0.29,0.26-0.45,0.65-0.4,1.06c0.02,0.15,0.07,0.28,0.13,0.4c0.04-0.01,0.08-0.02,0.12-0.03
			c0.54-0.07,1.03,0.22,1.26,0.67c0.62-0.14,1.05-0.72,0.97-1.36c-0.04-0.32-0.2-0.59-0.43-0.78c-0.19,0.17-0.42,0.29-0.69,0.32
			C13.5,10.92,13.16,10.81,12.9,10.59z"/>
		<path class="st4" d="M10.28,13.47c-0.26-0.37-0.7-0.59-1.18-0.53c-0.05,0.01-0.1,0.02-0.14,0.03c0,0.02,0.01,0.04,0.01,0.06
			c0.08,0.63-0.34,1.2-0.94,1.35c0.11,0.65,0.72,1.1,1.38,1.02c0.3-0.04,0.57-0.19,0.76-0.39c-0.11-0.16-0.19-0.34-0.21-0.54
			C9.91,14.08,10.04,13.73,10.28,13.47z"/>
		<path class="st5" d="M8.32,7.83c0.01,0.07,0.01,0.14,0,0.21c0.05,0,0.11,0,0.16,0c0.44-0.06,0.8-0.33,0.98-0.71
			C9.13,7.15,8.89,6.82,8.84,6.42C8.81,6.18,8.85,5.94,8.95,5.74C8.73,5.61,8.46,5.55,8.18,5.59C7.57,5.66,7.12,6.17,7.09,6.76
			C7.71,6.76,8.24,7.21,8.32,7.83z"/>
		<path class="st6" d="M8.96,12.97c-0.11-0.65-0.72-1.1-1.38-1.02c-0.68,0.09-1.17,0.7-1.09,1.38c0.08,0.68,0.71,1.16,1.39,1.07
			c0.05-0.01,0.1-0.02,0.14-0.03c0-0.02-0.01-0.04-0.01-0.06C7.93,13.69,8.35,13.12,8.96,12.97z"/>
		<path class="st7" d="M13.34,9.13c-0.25,0.03-0.48-0.01-0.69-0.11c-0.14,0.23-0.21,0.5-0.18,0.79c0.04,0.32,0.2,0.59,0.43,0.78
			c0.19-0.17,0.42-0.29,0.69-0.32c0.36-0.05,0.71,0.07,0.97,0.29c0.29-0.26,0.45-0.65,0.4-1.06c-0.05-0.43-0.33-0.78-0.7-0.96
			C14.06,8.85,13.74,9.08,13.34,9.13z"/>
		<path class="st8" d="M12.64,12.05c-0.54,0.12-0.94,0.57-0.98,1.11c0.41,0.16,0.72,0.53,0.77,0.99c0.01,0.08,0.01,0.16,0.01,0.24
			c0.19,0.08,0.4,0.11,0.62,0.08c0.68-0.09,1.17-0.7,1.09-1.38c-0.02-0.15-0.07-0.28-0.13-0.4c-0.04,0.01-0.08,0.02-0.12,0.03
			C13.36,12.79,12.87,12.5,12.64,12.05z"/>
		<path class="st9" d="M9.57,6.66C9.6,6.9,9.56,7.13,9.46,7.33c0.23,0.13,0.49,0.19,0.77,0.15c0.22-0.03,0.41-0.11,0.58-0.23
			c-0.09-0.14-0.15-0.31-0.17-0.49c-0.06-0.46,0.15-0.89,0.51-1.15c-0.25-0.4-0.72-0.65-1.22-0.59c-0.44,0.06-0.8,0.33-0.98,0.71
			C9.28,5.93,9.52,6.26,9.57,6.66z"/>
		<path class="st10" d="M12.03,7.84c-0.03,0-0.06,0-0.09,0c0,0.07,0,0.14,0,0.21c0.05,0.43,0.33,0.78,0.7,0.96
			c0.19-0.31,0.52-0.54,0.91-0.59c0.25-0.03,0.48,0.01,0.69,0.11c0.14-0.23,0.21-0.5,0.18-0.79c-0.08-0.65-0.66-1.11-1.31-1.07
			C13.09,7.26,12.64,7.76,12.03,7.84z"/>
		<path class="st11" d="M10.81,7.25c0.23,0.38,0.66,0.61,1.13,0.59c0.03-0.59,0.48-1.09,1.09-1.17c0.03,0,0.06,0,0.09,0
			c0-0.07,0-0.14,0-0.21c-0.08-0.68-0.71-1.16-1.39-1.07c-0.22,0.03-0.41,0.11-0.58,0.23c0.09,0.14,0.15,0.31,0.17,0.49
			C11.38,6.57,11.17,7,10.81,7.25z"/>
	</g>
	<g>
		<path class="st1" d="M9.9,8.01c-0.72,0-1.31,0.5-1.43,1.15c0.71,0.09,1.27,0.66,1.27,1.36c0,0.08-0.01,0.16-0.02,0.23
			c0.06,0.01,0.12,0.02,0.19,0.02c0.8,0,1.46-0.62,1.46-1.38C11.36,8.63,10.71,8.01,9.9,8.01z"/>
		<path class="st2" d="M5.38,2.76c0,0.09-0.01,0.18-0.03,0.27c0.21,0.11,0.45,0.18,0.71,0.18c0.36,0,0.68-0.13,0.93-0.33
			c-0.1-0.19-0.17-0.4-0.17-0.63c0-0.42,0.21-0.8,0.52-1.05C7.1,0.76,6.62,0.46,6.05,0.46c-0.71,0-1.3,0.48-1.43,1.11
			C5.07,1.8,5.38,2.25,5.38,2.76z"/>
		<path class="st3" d="M3.54,5.71C3.9,5.46,4.15,5.06,4.15,4.59c0-0.16-0.04-0.32-0.09-0.46c-0.05,0-0.09,0.01-0.14,0.01
			c-0.63,0-1.16-0.38-1.37-0.91C1.81,3.29,1.23,3.88,1.23,4.59c0,0.36,0.15,0.68,0.38,0.92c0.24-0.16,0.53-0.26,0.85-0.26
			C2.89,5.26,3.27,5.43,3.54,5.71z"/>
		<path class="st4" d="M6.99,2.89c0.24,0.44,0.73,0.75,1.29,0.75c0.06,0,0.11-0.01,0.17-0.02c0-0.02-0.01-0.04-0.01-0.06
			c0-0.71,0.56-1.28,1.29-1.36C9.69,1.46,9.06,0.88,8.28,0.88c-0.36,0-0.68,0.13-0.93,0.33c0.1,0.19,0.17,0.4,0.17,0.63
			C7.51,2.26,7.3,2.63,6.99,2.89z"/>
		<path class="st5" d="M8.44,9.39c0-0.08,0.01-0.16,0.02-0.23C8.41,9.15,8.34,9.14,8.28,9.14c-0.52,0-0.97,0.26-1.23,0.65
			c0.36,0.25,0.59,0.65,0.59,1.1c0,0.27-0.08,0.52-0.23,0.73c0.24,0.17,0.54,0.28,0.87,0.28c0.72,0,1.31-0.5,1.43-1.15
			C9,10.66,8.44,10.09,8.44,9.39z"/>
		<path class="st6" d="M8.45,3.62C8.49,4.35,9.12,4.94,9.9,4.94c0.8,0,1.46-0.62,1.46-1.38c0-0.76-0.65-1.38-1.46-1.38
			c-0.06,0-0.11,0.01-0.17,0.02c0,0.02,0.01,0.04,0.01,0.06C9.74,2.96,9.17,3.54,8.45,3.62z"/>
		<path class="st7" d="M2.82,7.26c0.29,0,0.56,0.08,0.78,0.22c0.2-0.23,0.32-0.53,0.32-0.85c0-0.36-0.15-0.68-0.38-0.92
			C3.3,5.87,3.01,5.97,2.69,5.97c-0.43,0-0.81-0.18-1.08-0.46C1.25,5.77,1,6.17,1,6.63c0,0.49,0.27,0.91,0.67,1.16
			C1.94,7.47,2.35,7.26,2.82,7.26z"/>
		<path class="st8" d="M4.06,4.13c0.64-0.06,1.17-0.5,1.29-1.09C4.9,2.8,4.59,2.35,4.59,1.84c0-0.09,0.01-0.18,0.03-0.27
			C4.41,1.45,4.18,1.38,3.92,1.38c-0.8,0-1.46,0.62-1.46,1.38c0,0.16,0.04,0.32,0.09,0.46c0.05,0,0.09-0.01,0.14-0.01
			C3.32,3.21,3.85,3.6,4.06,4.13z"/>
		<path class="st9" d="M6.82,10.52c0-0.27,0.08-0.52,0.23-0.73C6.8,9.62,6.51,9.51,6.18,9.51c-0.26,0-0.49,0.07-0.7,0.18
			c0.08,0.17,0.13,0.36,0.13,0.56c0,0.52-0.31,0.97-0.75,1.2c0.23,0.48,0.74,0.82,1.33,0.82c0.52,0,0.97-0.26,1.23-0.65
			C7.05,11.37,6.82,10.97,6.82,10.52z"/>
		<path class="st10" d="M4.15,8.87c0.03,0,0.07,0.01,0.1,0.01C4.26,8.8,4.27,8.72,4.27,8.64C4.27,8.16,4,7.73,3.6,7.48
			C3.33,7.8,2.92,8.01,2.46,8.01c-0.29,0-0.56-0.08-0.78-0.22c-0.2,0.23-0.32,0.53-0.32,0.85c0,0.73,0.6,1.32,1.36,1.37
			C2.83,9.36,3.43,8.87,4.15,8.87z"/>
		<path class="st11" d="M5.48,9.69C5.26,9.24,4.8,8.92,4.25,8.88c-0.12,0.65-0.71,1.14-1.43,1.14c-0.03,0-0.07-0.01-0.1-0.01
			c-0.01,0.08-0.03,0.16-0.03,0.24c0,0.76,0.65,1.38,1.46,1.38c0.26,0,0.49-0.07,0.7-0.18c-0.08-0.17-0.13-0.36-0.13-0.56
			C4.72,10.37,5.03,9.92,5.48,9.69z"/>
	</g>
</g>
</svg>
